<svg id="Capa_1" enable-background="new 0 0 512 512" height="512" viewBox="0 0 512 512" width="512" xmlns="http://www.w3.org/2000/svg"><g id="XMLID_838_"><path id="XMLID_2464_" d="m462 438v-428h-380c-17.673 0-32 14.327-32 32v428z" fill="#f6838d"/><path id="XMLID_1285_" d="m114 10h-32c-17.673 0-32 14.327-32 32v428l64-4.971z" fill="#98a1b3"/><path id="XMLID_2479_" d="m82 502h380v-64h-380c-17.673 0-32 14.327-32 32 0 17.673 14.327 32 32 32z" fill="#fff"/><path id="XMLID_2234_" d="m407.998 187.291c-.217-23.351-19.398-42.589-42.749-42.873-8.809-.107-17.021 2.417-23.901 6.836-3.202-26.621-25.864-47.254-53.348-47.254s-50.146 20.633-53.349 47.254c-6.88-4.419-15.092-6.943-23.901-6.836-23.351.284-42.531 19.522-42.749 42.873-.214 22.988 17.492 41.887 39.998 43.578v113.131h160v-113.132c22.507-1.691 40.213-20.589 39.999-43.577z" fill="#f9f9f9"/><g id="XMLID_162_"><path id="XMLID_1291_" d="m462 0h-380c-23.159 0-42 18.841-42 42v428c0 23.159 18.841 42 42 42h380c5.523 0 10-4.477 10-10v-492c0-5.523-4.477-10-10-10zm-380 20h22v162c0 5.523 4.477 10 10 10s10-4.477 10-10v-162h328v408h-328v-156c0-5.523-4.477-10-10-10s-10 4.477-10 10v156h-22c-8.062 0-15.597 2.288-22 6.242v-392.242c0-12.131 9.869-22 22-22zm370 472h-370c-12.131 0-22-9.869-22-22s9.869-22 22-22h370z"/><path id="XMLID_1298_" d="m198 239.316v104.684c0 5.523 4.477 10 10 10h160c5.523 0 10-4.477 10-10v-104.684c23.267-5.99 40.229-27.317 39.998-52.119-.268-28.753-23.875-52.43-52.626-52.779-5.852-.073-11.609.806-17.083 2.577-8.665-25.24-32.626-42.995-60.289-42.995s-51.624 17.755-60.289 42.995c-5.474-1.771-11.229-2.648-17.083-2.577-28.751.349-52.359 24.026-52.626 52.779-.231 24.802 16.731 46.13 39.998 52.119zm20 94.684v-28h140v28zm-7.127-179.583c6.541-.076 12.901 1.736 18.375 5.251 2.897 1.86 6.549 2.099 9.664.633 3.115-1.467 5.257-4.434 5.668-7.853 2.637-21.919 21.303-38.448 43.42-38.448s40.783 16.529 43.421 38.448c.411 3.419 2.553 6.385 5.668 7.853 3.116 1.467 6.767 1.228 9.664-.633 5.473-3.515 11.833-5.336 18.375-5.251 17.958.218 32.704 15.007 32.871 32.967.163 17.481-13.339 32.199-30.739 33.512-.005 0-.01 0-.015 0-9.698.741-19.203-2.784-26.073-9.654-3.905-3.905-10.237-3.905-14.142 0s-3.905 10.237 0 14.142c8.433 8.432 19.344 13.695 30.97 15.169v45.447h-140v-45.447c11.626-1.474 22.537-6.737 30.97-15.169 3.905-3.905 3.906-10.237 0-14.142-3.905-3.905-10.237-3.905-14.142 0-6.87 6.871-16.368 10.396-26.073 9.654-.005 0-.01 0-.015 0-17.4-1.312-30.902-16.03-30.739-33.512.167-17.96 14.913-32.749 32.872-32.967z"/><path id="XMLID_1300_" d="m114 237c2.63 0 5.21-1.07 7.07-2.93s2.93-4.44 2.93-7.07-1.07-5.21-2.93-7.07-4.44-2.93-7.07-2.93-5.21 1.07-7.07 2.93-2.93 4.44-2.93 7.07 1.07 5.21 2.93 7.07 4.44 2.93 7.07 2.93z"/></g></g></svg>